<?xml version="1.0" encoding="utf-8"?>
<!-- Generator: Adobe Illustrator 19.0.0, SVG Export Plug-In . SVG Version: 6.00 Build 0)  -->
<svg version="1.1" id="Camada_1" xmlns="http://www.w3.org/2000/svg" xmlns:xlink="http://www.w3.org/1999/xlink" x="0px" y="0px"
	 viewBox="0 0.5 612 251" style="enable-background:new 0 0.5 612 251;" xml:space="preserve">
<style type="text/css">
	.st0{fill:#D6D2C9;}
	.st1{fill:url(#XMLID_15_);}
	.st2{fill:#AFADA3;}
	.st3{fill:#EEEEE3;}
	.st4{fill:#C4C2B9;}
	.st5{fill:#E2E1D7;}
	.st6{fill:#E7E3DA;}
	.st7{fill:none;}
	.st8{fill:#ECEBE0;}
	.st9{fill:#D7D7D7;}
	.st10{fill:#F2F2E8;stroke:#AEB1B2;stroke-width:2;stroke-miterlimit:10;}
	.st11{fill:#F2F2E8;stroke:#AEB1B2;stroke-width:3;stroke-miterlimit:10;}
	.st12{fill:#CFD1CD;}
	.st13{fill:#7C6253;}
	.st14{fill:#563015;}
	.st15{fill:#361D11;}
	.st16{fill:#DBB592;}
	.st17{fill:url(#XMLID_21_);}
	.st18{fill:url(#XMLID_23_);stroke:#246F7B;stroke-width:2;stroke-miterlimit:10;}
	.st19{fill:#463E3B;}
	.st20{fill:#E9DEA8;}
	.st21{fill:url(#XMLID_24_);}
	.st22{fill:#D58B8C;}
	.st23{fill:#98968E;}
	.st24{fill:url(#XMLID_26_);}
</style>
<g id="XMLID_2_">
	<g id="XMLID_404_">
		<path id="XMLID_1_" class="st0" d="M421.7,50.1H178.5c-4.1,0-8-1.9-10.6-5.1l-16.3-20.4c-1.6-2-0.2-4.9,2.4-4.9h291.5
			c2.5,0,3.9,2.9,2.3,4.8l-17,21.3C428.5,48.5,425.2,50.1,421.7,50.1z"/>
		
			<linearGradient id="XMLID_15_" gradientUnits="userSpaceOnUse" x1="270.3427" y1="813.7511" x2="311.2467" y2="743.5799" gradientTransform="matrix(1 0 0 -1 0 792)">
			<stop  offset="0.4901" style="stop-color:#7F9490"/>
			<stop  offset="0.4934" style="stop-color:#5C6665"/>
		</linearGradient>
		<path id="XMLID_3_" class="st1" d="M419.1,46.1L180.5,46c-2.5,0-4.8-1.1-6.3-3.1l-10.1-12.8c-1-1.3-0.1-3.3,1.6-3.3h268.6
			c1.2,0,1.9,1.4,1.1,2.3l-9.2,13.2C424.7,44.7,422,46.1,419.1,46.1z"/>
		<path id="XMLID_4_" class="st2" d="M153.4,19.7c0,0,1.1-2.4,5.4-3.2h282.5c0,0,2.8,0.3,4.8,3.3L153.4,19.7z"/>
		<path id="XMLID_5_" class="st3" d="M407.5,221.3H190.7c-9.9,0-17.9-8-17.9-17.9V61.6c0-6.3,5.1-11.5,11.5-11.5h229
			c7.5,0,13.6,6.1,13.6,13.6v138.2C426.9,212.6,418.2,221.3,407.5,221.3z"/>
		<path id="XMLID_6_" class="st4" d="M324,212.1h-48.9c-5.2,0-9.5-4.3-9.5-9.5v-32.1c0-5.2,4.3-9.5,9.5-9.5H324
			c5.2,0,9.5,4.3,9.5,9.5v32.2C333.5,207.9,329.3,212.1,324,212.1z"/>
		<path id="XMLID_7_" class="st5" d="M324,214h-48.9c-5.2,0-9.5-4.3-9.5-9.5v-32.2c0-5.2,4.3-9.5,9.5-9.5H324c5.2,0,9.5,4.3,9.5,9.5
			v32.2C333.5,209.7,329.3,214,324,214z"/>
		<g id="XMLID_10_">
			<rect id="XMLID_11_" x="197.2" y="65" class="st4" width="13.6" height="7.4"/>
			<g id="XMLID_13_">
				<path id="XMLID_16_" class="st6" d="M208.2,71.7h-11V65h13.1v4.7C210.3,70.8,209.4,71.7,208.2,71.7z"/>
			</g>
		</g>
		<g id="XMLID_18_">
			<rect id="XMLID_25_" x="213.2" y="64.9" class="st4" width="13.6" height="7.4"/>
			<g id="XMLID_19_">
				<path id="XMLID_20_" class="st6" d="M224.2,71.7h-11V65h13.1v4.7C226.3,70.8,225.3,71.7,224.2,71.7z"/>
			</g>
		</g>
		<g id="XMLID_27_">
			<rect id="XMLID_33_" x="228.9" y="64.9" class="st4" width="13.6" height="7.4"/>
			<g id="XMLID_29_">
				<path id="XMLID_30_" class="st6" d="M239.9,71.7h-11V65H242v4.7C242,70.8,241.1,71.7,239.9,71.7z"/>
			</g>
		</g>
		<g id="XMLID_46_">
			<rect id="XMLID_51_" x="244.4" y="65" class="st4" width="13.6" height="7.4"/>
			<g id="XMLID_47_">
				<path id="XMLID_48_" class="st6" d="M255.4,71.7h-11V65h13.1v4.7C257.4,70.8,256.5,71.7,255.4,71.7z"/>
			</g>
		</g>
		<g id="XMLID_40_">
			<rect id="XMLID_45_" x="260.3" y="64.9" class="st4" width="13.6" height="7.4"/>
			<g id="XMLID_41_">
				<path id="XMLID_42_" class="st6" d="M271.3,71.7h-11V65h13.1v4.7C273.4,70.8,272.5,71.7,271.3,71.7z"/>
			</g>
		</g>
		<g id="XMLID_34_">
			<rect id="XMLID_39_" x="276" y="64.9" class="st4" width="13.6" height="7.4"/>
			<g id="XMLID_35_">
				<path id="XMLID_36_" class="st6" d="M287,71.7h-11V65h13.1v4.7C289.1,70.8,288.2,71.7,287,71.7z"/>
			</g>
		</g>
		<g id="XMLID_82_">
			<rect id="XMLID_87_" x="291.5" y="65" class="st4" width="13.6" height="7.4"/>
			<g id="XMLID_83_">
				<path id="XMLID_84_" class="st6" d="M302.5,71.7h-11V65h13.1v4.7C304.6,70.8,303.6,71.7,302.5,71.7z"/>
			</g>
		</g>
		<g id="XMLID_76_">
			<rect id="XMLID_81_" x="307.5" y="64.9" class="st4" width="13.6" height="7.4"/>
			<g id="XMLID_77_">
				<path id="XMLID_78_" class="st6" d="M318.5,71.7h-11V65h13.1v4.7C320.5,70.8,319.6,71.7,318.5,71.7z"/>
			</g>
		</g>
		<g id="XMLID_70_">
			<rect id="XMLID_75_" x="323.2" y="64.9" class="st4" width="13.6" height="7.4"/>
			<g id="XMLID_71_">
				<path id="XMLID_72_" class="st6" d="M334.2,71.7h-11V65h13.1v4.7C336.3,70.8,335.3,71.7,334.2,71.7z"/>
			</g>
		</g>
		<g id="XMLID_64_">
			<rect id="XMLID_69_" x="338.6" y="65" class="st4" width="13.6" height="7.4"/>
			<g id="XMLID_65_">
				<path id="XMLID_66_" class="st6" d="M349.6,71.7h-11V65h13.1v4.7C351.7,70.8,350.8,71.7,349.6,71.7z"/>
			</g>
		</g>
		<g id="XMLID_58_">
			<rect id="XMLID_63_" x="354.6" y="64.9" class="st4" width="13.6" height="7.4"/>
			<g id="XMLID_59_">
				<path id="XMLID_60_" class="st6" d="M365.6,71.7h-11V65h13.1v4.7C367.7,70.8,366.7,71.7,365.6,71.7z"/>
			</g>
		</g>
		<g id="XMLID_52_">
			<rect id="XMLID_57_" x="370.3" y="64.9" class="st4" width="13.6" height="7.4"/>
			<g id="XMLID_53_">
				<path id="XMLID_54_" class="st6" d="M381.3,71.7h-11V65h13.1v4.7C383.4,70.8,382.5,71.7,381.3,71.7z"/>
			</g>
		</g>
		<g id="XMLID_88_">
			<rect id="XMLID_93_" x="385.4" y="64.9" class="st4" width="13.6" height="7.4"/>
			<g id="XMLID_89_">
				<path id="XMLID_90_" class="st6" d="M396.4,71.7h-11V65h13.1v4.7C398.5,70.8,397.6,71.7,396.4,71.7z"/>
			</g>
		</g>
		<path id="XMLID_95_" class="st6" d="M207.6,85.7h-10.4V74.3H210v9.1C210,84.7,208.9,85.7,207.6,85.7z"/>
		<line id="XMLID_99_" class="st7" x1="210.9" y1="74.3" x2="210.9" y2="86.6"/>
		<g id="XMLID_94_">
			<rect id="XMLID_96_" x="197.2" y="74.3" class="st4" width="13.6" height="12.2"/>
			<path id="XMLID_97_" class="st6" d="M207.6,85.7h-10.4V74.3H210v9.1C210,84.7,208.9,85.7,207.6,85.7z"/>
		</g>
		<g id="XMLID_98_">
			<rect id="XMLID_103_" x="214.2" y="74.3" class="st4" width="13.6" height="12.2"/>
			<path id="XMLID_100_" class="st6" d="M224.6,85.7h-10.4V74.3H227v9.1C227,84.7,225.9,85.7,224.6,85.7z"/>
		</g>
		<g id="XMLID_113_">
			<rect id="XMLID_117_" x="229.8" y="74.3" class="st4" width="13.6" height="12.2"/>
			<path id="XMLID_114_" class="st6" d="M240.3,85.7h-10.4V74.3h12.8v9.1C242.6,84.7,241.6,85.7,240.3,85.7z"/>
		</g>
		<g id="XMLID_105_">
			<rect id="XMLID_112_" x="246.2" y="74.3" class="st4" width="13.6" height="12.2"/>
			<path id="XMLID_107_" class="st6" d="M256.6,85.7h-10.4V74.3H259v9.1C259,84.7,257.9,85.7,256.6,85.7z"/>
		</g>
		<g id="XMLID_133_">
			<rect id="XMLID_137_" x="263.7" y="74.3" class="st4" width="13.6" height="12.2"/>
			<path id="XMLID_134_" class="st6" d="M274.1,85.7h-10.4V74.3h12.8v9.1C276.5,84.7,275.4,85.7,274.1,85.7z"/>
		</g>
		<g id="XMLID_128_">
			<rect id="XMLID_132_" x="280.7" y="74.3" class="st4" width="13.6" height="12.2"/>
			<path id="XMLID_129_" class="st6" d="M291.1,85.7h-10.4V74.3h12.8v9.1C293.5,84.7,292.4,85.7,291.1,85.7z"/>
		</g>
		<g id="XMLID_123_">
			<rect id="XMLID_127_" x="296.3" y="74.3" class="st4" width="13.6" height="12.2"/>
			<path id="XMLID_124_" class="st6" d="M306.7,85.7h-10.4V74.3h12.8v9.1C309.1,84.7,308,85.7,306.7,85.7z"/>
		</g>
		<g id="XMLID_118_">
			<rect id="XMLID_122_" x="312.1" y="74.3" class="st4" width="13.6" height="12.2"/>
			<path id="XMLID_119_" class="st6" d="M322.5,85.7h-10.4V74.3h12.8v9.1C324.9,84.7,323.8,85.7,322.5,85.7z"/>
		</g>
		<g id="XMLID_148_">
			<rect id="XMLID_152_" x="327.8" y="74.3" class="st4" width="13.6" height="12.2"/>
			<path id="XMLID_149_" class="st6" d="M338.2,85.7h-10.4V74.3h12.8v9.1C340.6,84.7,339.5,85.7,338.2,85.7z"/>
		</g>
		<g id="XMLID_141_">
			<rect id="XMLID_147_" x="344.1" y="74.3" class="st4" width="13.6" height="12.2"/>
			<path id="XMLID_142_" class="st6" d="M354.5,85.7h-10.4V74.3h12.8v9.1C356.9,84.7,355.8,85.7,354.5,85.7z"/>
		</g>
		<g id="XMLID_101_">
			<rect id="XMLID_140_" x="360.4" y="74.3" class="st4" width="13.6" height="12.2"/>
			<path id="XMLID_102_" class="st6" d="M370.8,85.7h-10.4V74.3h12.8v9.1C373.2,84.7,372.2,85.7,370.8,85.7z"/>
		</g>
		<g id="XMLID_153_">
			<rect id="XMLID_157_" x="377.4" y="74.3" class="st4" width="21.5" height="12.2"/>
			<path id="XMLID_154_" class="st6" d="M395.1,85.7h-17.8V74.3h20.1v9.1C397.5,84.7,396.4,85.7,395.1,85.7z"/>
		</g>
		<g id="XMLID_155_">
			<rect id="XMLID_160_" x="197.2" y="89.2" class="st4" width="18.7" height="12.2"/>
			<path id="XMLID_156_" class="st6" d="M212.4,100.7h-15.1V89.2h17.5v9.1C214.7,99.6,213.7,100.7,212.4,100.7z"/>
		</g>
		<g id="XMLID_203_">
			<rect id="XMLID_207_" x="221.7" y="89.4" class="st4" width="13.6" height="12.2"/>
			<path id="XMLID_204_" class="st6" d="M232.1,100.9h-10.4V89.4h12.8v9.1C234.5,99.8,233.4,100.9,232.1,100.9z"/>
		</g>
		<g id="XMLID_198_">
			<rect id="XMLID_202_" x="237.4" y="89.4" class="st4" width="13.6" height="12.2"/>
			<path id="XMLID_199_" class="st6" d="M247.8,100.9h-10.4V89.4h12.8v9.1C250.1,99.8,249.1,100.9,247.8,100.9z"/>
		</g>
		<g id="XMLID_193_">
			<rect id="XMLID_197_" x="253.7" y="89.4" class="st4" width="13.6" height="12.2"/>
			<path id="XMLID_194_" class="st6" d="M264.1,100.9h-10.4V89.4h12.8v9.1C266.5,99.8,265.4,100.9,264.1,100.9z"/>
		</g>
		<g id="XMLID_188_">
			<rect id="XMLID_192_" x="271.8" y="89.4" class="st4" width="13.6" height="12.2"/>
			<path id="XMLID_189_" class="st6" d="M282.2,100.9h-10.4V89.4h12.8v9.1C284.6,99.8,283.5,100.9,282.2,100.9z"/>
		</g>
		<g id="XMLID_183_">
			<rect id="XMLID_187_" x="288.8" y="89.4" class="st4" width="13.6" height="12.2"/>
			<path id="XMLID_184_" class="st6" d="M299.2,100.9h-10.4V89.4h12.8v9.1C301.6,99.8,300.5,100.9,299.2,100.9z"/>
		</g>
		<g id="XMLID_178_">
			<rect id="XMLID_182_" x="305.6" y="88.8" class="st4" width="13.6" height="12.2"/>
			<path id="XMLID_179_" class="st6" d="M316.1,100.2h-10.4V88.8h12.8v9.1C318.4,99.2,317.4,100.2,316.1,100.2z"/>
		</g>
		<g id="XMLID_173_">
			<rect id="XMLID_177_" x="322.6" y="88.8" class="st4" width="13.6" height="12.2"/>
			<path id="XMLID_174_" class="st6" d="M333,100.2h-10.4V88.8h12.8v9.1C335.4,99.2,334.3,100.2,333,100.2z"/>
		</g>
		<g id="XMLID_165_">
			<rect id="XMLID_172_" x="340.1" y="88.8" class="st4" width="13.6" height="12.2"/>
			<path id="XMLID_167_" class="st6" d="M350.5,100.2h-10.4V88.8h12.8v9.1C352.9,99.2,351.9,100.2,350.5,100.2z"/>
		</g>
		<g id="XMLID_158_">
			<rect id="XMLID_163_" x="358.1" y="89.2" class="st4" width="13.6" height="12.2"/>
			<path id="XMLID_159_" class="st6" d="M368.6,100.7h-10.4V89.2H371v9.1C370.9,99.6,369.9,100.7,368.6,100.7z"/>
		</g>
		<g id="XMLID_253_">
			<rect id="XMLID_257_" x="197.2" y="103.7" class="st4" width="18.7" height="12.2"/>
			<path id="XMLID_254_" class="st6" d="M212.4,115.2h-15.1v-11.4h17.5v9.1C214.7,114.1,213.7,115.2,212.4,115.2z"/>
		</g>
		<g id="XMLID_248_">
			<rect id="XMLID_252_" x="221.7" y="103.9" class="st4" width="13.6" height="12.2"/>
			<path id="XMLID_249_" class="st6" d="M232.1,115.4h-10.4V104h12.8v9.1C234.5,114.3,233.4,115.4,232.1,115.4z"/>
		</g>
		<g id="XMLID_243_">
			<rect id="XMLID_247_" x="237.4" y="103.9" class="st4" width="13.6" height="12.2"/>
			<path id="XMLID_244_" class="st6" d="M247.8,115.4h-10.4V104h12.8v9.1C250.1,114.3,249.1,115.4,247.8,115.4z"/>
		</g>
		<g id="XMLID_238_">
			<rect id="XMLID_242_" x="253.7" y="103.9" class="st4" width="13.6" height="12.2"/>
			<path id="XMLID_239_" class="st6" d="M264.1,115.4h-10.4V104h12.8v9.1C266.5,114.3,265.4,115.4,264.1,115.4z"/>
		</g>
		<g id="XMLID_233_">
			<rect id="XMLID_237_" x="271.8" y="103.9" class="st4" width="13.6" height="12.2"/>
			<path id="XMLID_234_" class="st6" d="M282.2,115.4h-10.4V104h12.8v9.1C284.6,114.3,283.5,115.4,282.2,115.4z"/>
		</g>
		<g id="XMLID_228_">
			<rect id="XMLID_232_" x="288.8" y="103.9" class="st4" width="13.6" height="12.2"/>
			<path id="XMLID_229_" class="st6" d="M299.2,115.4h-10.4V104h12.8v9.1C301.6,114.3,300.5,115.4,299.2,115.4z"/>
		</g>
		<g id="XMLID_223_">
			<rect id="XMLID_227_" x="305.6" y="103.3" class="st4" width="13.6" height="12.2"/>
			<path id="XMLID_224_" class="st6" d="M316.1,114.8h-10.4v-11.4h12.8v9.1C318.4,113.7,317.4,114.8,316.1,114.8z"/>
		</g>
		<g id="XMLID_218_">
			<rect id="XMLID_222_" x="322.6" y="103.3" class="st4" width="13.6" height="12.2"/>
			<path id="XMLID_219_" class="st6" d="M333,114.8h-10.4v-11.4h12.8v9.1C335.4,113.7,334.3,114.8,333,114.8z"/>
		</g>
		<g id="XMLID_211_">
			<rect id="XMLID_217_" x="340.1" y="103.3" class="st4" width="13.6" height="12.2"/>
			<path id="XMLID_212_" class="st6" d="M350.5,114.8h-10.4v-11.4h12.8v9.1C352.9,113.7,351.9,114.8,350.5,114.8z"/>
		</g>
		<g id="XMLID_169_">
			<rect id="XMLID_210_" x="358.1" y="103.7" class="st4" width="25.3" height="12.2"/>
			<path id="XMLID_171_" class="st6" d="M379.4,115.2h-21.3v-11.4h23.7v9.1C381.8,114.1,380.7,115.2,379.4,115.2z"/>
		</g>
		<g id="XMLID_208_">
			<rect id="XMLID_260_" x="263.4" y="132.7" class="st4" width="88.2" height="12.2"/>
			<path id="XMLID_209_" class="st6" d="M346.9,144.2h-83.5v-11.4h85.8v9.1C349.2,143.1,348.2,144.2,346.9,144.2z"/>
		</g>
		<g id="XMLID_308_">
			<rect id="XMLID_312_" x="197.2" y="118.6" class="st4" width="18.7" height="12.2"/>
			<path id="XMLID_309_" class="st6" d="M212.4,130.1h-15.1v-11.4h17.5v9.1C214.7,129,213.7,130.1,212.4,130.1z"/>
		</g>
		<g id="XMLID_303_">
			<rect id="XMLID_307_" x="237.7" y="119.2" class="st4" width="13.6" height="12.2"/>
			<path id="XMLID_304_" class="st6" d="M248.1,130.7h-10.4v-11.4h12.8v9.1C250.5,129.6,249.4,130.7,248.1,130.7z"/>
		</g>
		<g id="XMLID_298_">
			<rect id="XMLID_302_" x="253.4" y="119.2" class="st4" width="13.6" height="12.2"/>
			<path id="XMLID_299_" class="st6" d="M263.8,130.7h-10.4v-11.4h12.8v9.1C266.2,129.6,265.1,130.7,263.8,130.7z"/>
		</g>
		<g id="XMLID_293_">
			<rect id="XMLID_297_" x="269.7" y="119.2" class="st4" width="13.6" height="12.2"/>
			<path id="XMLID_294_" class="st6" d="M280.2,130.7h-10.4v-11.4h12.8v9.1C282.5,129.6,281.5,130.7,280.2,130.7z"/>
		</g>
		<g id="XMLID_288_">
			<rect id="XMLID_292_" x="287.8" y="119.2" class="st4" width="13.6" height="12.2"/>
			<path id="XMLID_289_" class="st6" d="M298.2,130.7h-10.4v-11.4h12.8v9.1C300.6,129.6,299.5,130.7,298.2,130.7z"/>
		</g>
		<g id="XMLID_283_">
			<rect id="XMLID_287_" x="304.8" y="119.2" class="st4" width="13.6" height="12.2"/>
			<path id="XMLID_284_" class="st6" d="M315.2,130.7h-10.4v-11.4h12.8v9.1C317.6,129.6,316.5,130.7,315.2,130.7z"/>
		</g>
		<g id="XMLID_278_">
			<rect id="XMLID_282_" x="321.7" y="118.6" class="st4" width="13.6" height="12.2"/>
			<path id="XMLID_279_" class="st6" d="M332.1,130.1h-10.4v-11.4h12.8v9.1C334.4,129,333.4,130.1,332.1,130.1z"/>
		</g>
		<g id="XMLID_273_">
			<rect id="XMLID_277_" x="338.6" y="118.6" class="st4" width="13.6" height="12.2"/>
			<path id="XMLID_274_" class="st6" d="M349,130.1h-10.4v-11.4h12.8v9.1C351.4,129,350.4,130.1,349,130.1z"/>
		</g>
		<g id="XMLID_265_">
			<rect id="XMLID_272_" x="356.2" y="118.6" class="st4" width="13.6" height="12.2"/>
			<path id="XMLID_267_" class="st6" d="M366.6,130.1h-10.4v-11.4H369v9.1C368.9,129,367.9,130.1,366.6,130.1z"/>
		</g>
		<g id="XMLID_258_">
			<rect id="XMLID_263_" x="374.2" y="119" class="st4" width="25.3" height="12.2"/>
			<path id="XMLID_259_" class="st6" d="M395.5,130.5h-21.3v-11.4h23.7v9.1C397.8,129.4,396.8,130.5,395.5,130.5z"/>
		</g>
		<g id="XMLID_313_">
			<rect id="XMLID_317_" x="221.3" y="118.2" class="st4" width="13.6" height="12.2"/>
			<path id="XMLID_314_" class="st6" d="M231.7,129.7h-10.4v-11.4h12.8v9.1C234.1,128.6,233,129.7,231.7,129.7z"/>
		</g>
		<g id="XMLID_318_">
			<rect id="XMLID_322_" x="196.6" y="133.5" class="st4" width="18.7" height="12.2"/>
			<path id="XMLID_319_" class="st6" d="M211.8,145h-15.1v-11.5h17.5v9.1C214.1,143.9,213.1,145,211.8,145z"/>
		</g>
		<g id="XMLID_323_">
			<rect id="XMLID_327_" x="218.5" y="133.5" class="st4" width="18.7" height="12.2"/>
			<path id="XMLID_324_" class="st6" d="M233.6,145h-15.1v-11.5H236v9.1C236,143.9,234.9,145,233.6,145z"/>
		</g>
		<g id="XMLID_328_">
			<rect id="XMLID_332_" x="239.9" y="132.7" class="st4" width="18.7" height="12.2"/>
			<path id="XMLID_329_" class="st6" d="M255.1,144.2H240v-11.4h17.5v9.1C257.4,143.1,256.4,144.2,255.1,144.2z"/>
		</g>
		<g id="XMLID_333_">
			<rect id="XMLID_337_" x="377.4" y="133.5" class="st4" width="21.7" height="12.2"/>
			<path id="XMLID_334_" class="st6" d="M395.3,145h-17.9v-11.5h20.3v9.1C397.7,143.9,396.6,145,395.3,145z"/>
		</g>
		<g id="XMLID_335_">
			<rect id="XMLID_340_" x="353.6" y="132.3" class="st4" width="18.7" height="12.2"/>
			<path id="XMLID_336_" class="st6" d="M368.8,143.8h-15.1v-11.4h17.5v9.1C371.1,142.7,370.1,143.8,368.8,143.8z"/>
		</g>
		<polygon id="XMLID_341_" class="st4" points="375.5,90.1 375.5,101.1 385.4,101.3 385.5,115.2 398.9,115.2 398.9,90.1 		"/>
		<ellipse id="XMLID_343_" class="st8" cx="501.4" cy="94" rx="48.3" ry="49.6"/>
		<polygon id="XMLID_342_" class="st6" points="375.5,89.9 375.5,100.4 385.1,100.6 385.2,113.8 398.2,113.8 398.2,89.9 		"/>
		<ellipse id="XMLID_358_" class="st9" cx="501.6" cy="94.2" rx="44.2" ry="44.2"/>
		
			<rect id="XMLID_374_" x="525.7" y="46.6" transform="matrix(-0.7942 -0.6076 0.6076 -0.7942 919.5886 426.896)" class="st10" width="12.8" height="22.3"/>
		<ellipse id="XMLID_372_" class="st11" cx="502.9" cy="92.6" rx="35.4" ry="33.7"/>
		<ellipse id="XMLID_371_" class="st12" cx="502.3" cy="93.6" rx="28.9" ry="28.7"/>
		<ellipse id="XMLID_370_" class="st13" cx="502.7" cy="94.2" rx="27" ry="26.9"/>
		<ellipse id="XMLID_368_" class="st14" cx="501.8" cy="93.8" rx="24.7" ry="24.5"/>
		<ellipse id="XMLID_345_" class="st15" cx="502.9" cy="94.6" rx="19.6" ry="20.1"/>
		<ellipse id="XMLID_347_" class="st16" cx="494.1" cy="76.2" rx="2.6" ry="2.7"/>
		<ellipse id="XMLID_348_" class="st16" cx="490.3" cy="78.7" rx="1.3" ry="1.4"/>
		<ellipse id="XMLID_349_" class="st16" cx="487.2" cy="82.4" rx="1.3" ry="1.4"/>
		<ellipse id="XMLID_352_" class="st16" cx="486.8" cy="78.7" rx="1.5" ry="1.6"/>
		<ellipse id="XMLID_356_" class="st16" cx="492.1" cy="114.8" rx="1.3" ry="1.4"/>
		<ellipse id="XMLID_365_" class="st16" cx="496.1" cy="114.8" rx="0.9" ry="0.9"/>
		
			<linearGradient id="XMLID_21_" gradientUnits="userSpaceOnUse" x1="98.1053" y1="677.8392" x2="143.3114" y2="633.333" gradientTransform="matrix(0.9533 -0.302 -0.302 -0.9533 203.4325 797.284)">
			<stop  offset="0.5" style="stop-color:#E5E4E3"/>
			<stop  offset="0.5" style="stop-color:#FFFFFF"/>
		</linearGradient>
		<path id="XMLID_359_" class="st17" d="M115.4,181l-29.2-15.1c-3.5-1.8-4.8-6.1-3-9.5l32.5-62.9c1.8-3.5,6.1-4.8,9.5-3l29.2,15.1
			c3.5,1.8,4.8,6.1,3,9.5l-32.6,62.8C123.1,181.4,118.9,182.8,115.4,181z"/>
		
			<linearGradient id="XMLID_23_" gradientUnits="userSpaceOnUse" x1="100.9635" y1="675.2584" x2="141.2238" y2="636.1173" gradientTransform="matrix(0.9533 -0.302 -0.302 -0.9533 203.4325 797.284)">
			<stop  offset="0.4901" style="stop-color:#467DAD"/>
			<stop  offset="0.4967" style="stop-color:#518FC1"/>
		</linearGradient>
		<polygon id="XMLID_376_" class="st18" points="117.8,96.4 153.6,114.9 123.4,174.5 87.2,156.5 		"/>
		<polygon id="XMLID_383_" class="st19" points="508.5,173.2 511.3,177.6 513,175.4 		"/>
		<path id="XMLID_386_" class="st20" d="M513,175.4l-1.7,2.2l6,7.9c0,0,1.6-4.3,4.7-5.4L513,175.4z"/>
		
			<linearGradient id="XMLID_24_" gradientUnits="userSpaceOnUse" x1="544.6903" y1="582.5396" x2="549.3253" y2="587.8354" gradientTransform="matrix(1 0 0 -1 0 792)">
			<stop  offset="0.325" style="stop-color:#D18F3A"/>
			<stop  offset="0.33" style="stop-color:#E0C462"/>
			<stop  offset="0.66" style="stop-color:#E0C462"/>
			<stop  offset="0.66" style="stop-color:#D18F3A"/>
		</linearGradient>
		<path id="XMLID_380_" class="st21" d="M517.4,185.9l55.1,47.7l4.8-5.1l-55.2-48C522.1,180.5,518.2,181.5,517.4,185.9z"/>
		<path id="XMLID_389_" class="st22" d="M581.5,234.8l-2,2.1c-0.5,0.5-1.4,0.6-1.9,0.1l-2.4-2.2c-0.5-0.5-0.6-1.4-0.1-1.9l2-2.1
			c0.5-0.5,1.4-0.6,1.9-0.1l2.4,2.2C581.9,233.4,582,234.2,581.5,234.8z"/>
		<path id="XMLID_394_" class="st23" d="M572.5,233.5l1.6,1.4c0,0,1,0.7,1.9-0.1l3.1-3.4c0,0,0.9-0.9-0.2-1.8
			c-1.1-0.8-1.5-1.3-1.5-1.3L572.5,233.5z"/>
		
			<linearGradient id="XMLID_26_" gradientUnits="userSpaceOnUse" x1="598.4523" y1="634.2448" x2="644.3146" y2="587.9112" gradientTransform="matrix(0.9353 -0.3539 -0.3539 -0.9353 112.233 985.5028)">
			<stop  offset="0" style="stop-color:#BDB41B"/>
			<stop  offset="0.1901" style="stop-color:#E7D53B"/>
			<stop  offset="0.7373" style="stop-color:#E7D53B"/>
			<stop  offset="1" style="stop-color:#E7D97D"/>
		</linearGradient>
		<polygon id="XMLID_398_" class="st24" points="508.3,208.1 461.5,225.8 443.8,179 490.6,161.3 		"/>
		<g id="XMLID_8_">
			<path id="XMLID_9_" d="M465.8,182.1c-1.9,0.7-2.8,5.1-1.7,7.9c0.5,1.2,1.3,2.1,2.3,1.7c2.1-0.8,2.2-4.9,1.1-7.6
				c-0.2-0.6-0.7-1.5-1.1-1.4c-0.5,0.2-0.7,2.1-0.6,3c-0.4,0.1-0.6-0.1-0.7-0.4c-0.3-0.8,0.4-2.6,1.2-2.9c0.8-0.3,1.4,0.9,1.8,1.8
				c1.6,4.1-0.1,7.3-1.9,8c-1.3,0.5-2.5-0.3-3.2-2c-1.1-2.9,0.1-7.2,2.2-8C465.5,182.1,465.7,182.1,465.8,182.1L465.8,182.1z"/>
			<path id="XMLID_14_" d="M472.3,185.3c0.2,0.4,0.1,0.9-0.2,1c-0.1,0-0.2,0-0.4,0c0.2-0.2,0.2-0.7,0.1-1c-0.1-0.2-0.2-0.3-0.3-0.2
				c-0.8,0.3-1.2,2.3-0.8,3.4c0.2,0.5,0.5,0.9,1.2,0.6c0.9-0.3,1.6-1.5,1.6-2.9l0.2,0.1c0,1.6-0.8,3-1.8,3.4c-0.7,0.3-1.4,0-1.8-1
				c-0.6-1.5,0.2-3.5,1.3-3.9C471.8,184.5,472.1,184.9,472.3,185.3z"/>
			<path id="XMLID_17_" d="M475.9,183.5c-0.8,0.4-1.4,0.7-1.9,0.9l-0.2,0.1c0,0.9,0,1.9,0.3,2.7c0.2,0.7,0.5,0.8,1,0.7
				c0.8-0.3,1.2-1.3,1.4-2.7l0.2,0.1c0,1.5-0.7,2.8-1.7,3.2c-0.6,0.2-1.1,0-1.4-0.7s-0.4-1.8-0.4-3c-0.2,0-0.3,0.1-0.4,0.1l-0.1-0.2
				c0.1,0,0.3-0.1,0.5-0.1c0-1.9,0.3-3.7,0.7-3.9c0.1,0,0.3,0,0.3,0.2c0.1,0.4-0.2,1.9-0.3,3.5l0.4-0.2c0.5-0.2,1-0.4,1.5-0.7
				L475.9,183.5z"/>
			<path id="XMLID_22_" d="M477.4,182.7c0.1,0.4-0.5,2.2-0.1,3.2c0.2,0.5,0.4,0.6,0.8,0.5c0.5-0.2,0.9-0.8,1-2.4l0.1,0.1
				c0.1,1.5-0.5,2.5-1.4,2.8c-0.6,0.2-1-0.1-1.2-0.6c-0.3-0.9-0.4-3.5,0.4-3.8C477.2,182.5,477.3,182.5,477.4,182.7z M476.6,181.1
				c-0.1-0.3,0.2-0.8,0.6-0.9c0.2-0.1,0.4,0,0.5,0.2c0.1,0.3-0.1,0.7-0.5,0.9C477,181.3,476.7,181.3,476.6,181.1z"/>
			<path id="XMLID_377_" d="M483.8,182.4c0,0.9-0.4,1.2-0.7,1.4c-0.4,0.2-0.9,0-1.3-0.4c0,1.3-0.4,2.3-1.2,2.6
				c-0.6,0.2-1-0.1-1.2-0.6c-0.5-1.2,0.1-3.9,1.4-4.3c0.3-0.1,0.4-0.1,0.6,0.1c0,0,0,0,0.1,0c0.3-0.1,0.5,0.2,0.5,0.3
				c0.1,0.3-0.1,1,0.1,1.6s0.7,0.8,1.1,0.6c0.3-0.1,0.5-0.5,0.5-1.2L483.8,182.4z M481.5,183.1c-0.1-0.2-0.2-0.4-0.3-0.6
				c-0.2-0.5-0.2-0.9-0.2-1.1c-1.2,0.5-1.4,2.8-1.1,3.6c0.1,0.3,0.4,0.5,0.6,0.4C481.1,185.2,481.4,184.2,481.5,183.1z"/>
			<path id="XMLID_416_" d="M458.9,199.9c1.5-0.6,2.6-0.7,3.6-1.1c-0.3,0.7-1,1-1.7,1.2c-0.3,0.1-0.5,0.2-0.8,0.3
				c0,1.4,0.1,3.5,0.3,6c0.1,1.3,0.2,2.2,0.5,2.9c0,0.1,0.1,0.2,0.1,0.2c-0.7,0.2-1,0-1.2-0.5c-0.2-0.4-0.2-1.2-0.2-1.8
				c-0.1-1.7-0.1-4.7,0-6.7c-1.5,0.6-2.1,0.9-3,1.4C456.4,201.2,457.4,200.5,458.9,199.9z"/>
			<path id="XMLID_429_" d="M463.3,206.2c0,0.2,0.1,0.3,0.1,0.4c0.2,0.5,0.5,0.9,1.2,0.6c0.9-0.4,1.6-1.6,1.7-2.9l0.2,0.1
				c-0.1,1.6-0.9,2.9-2,3.3c-0.9,0.3-1.6-0.1-1.8-0.8c-0.5-1.3,0.3-3.8,1.6-4.3c0.3-0.1,0.7-0.1,0.9,0.4
				C465.6,204.1,464.5,205.6,463.3,206.2z M463.3,206c0.7-0.6,1.8-1.9,1.4-2.9c-0.1-0.2-0.1-0.2-0.3-0.2
				C463.7,203.2,463.2,204.8,463.3,206z"/>
			<path id="XMLID_432_" d="M468.8,202c0.2,0.4,0.1,0.9-0.2,1c-0.1,0-0.2,0-0.4,0c0.2-0.2,0.2-0.7,0.1-1c-0.1-0.2-0.2-0.3-0.3-0.2
				c-0.8,0.3-1.2,2.3-0.8,3.4c0.2,0.5,0.5,0.9,1.2,0.6c0.9-0.3,1.6-1.5,1.6-2.9l0.2,0.1c0,1.6-0.8,3-1.8,3.4c-0.7,0.3-1.4,0-1.8-1
				c-0.6-1.5,0.2-3.5,1.3-3.9C468.3,201.3,468.7,201.7,468.8,202z"/>
			<path id="XMLID_434_" d="M469.7,201.9c0-0.1,0.2-0.3,0.4-0.4c0.2-0.1,0.3,0,0.4,0.2s0.2,0.9,0.2,1.6c0.2-1.1,0.7-2.5,1.5-2.8
				c0.6-0.2,1,0.2,1.2,0.7c0.3,0.7,0,1.4,0.2,2c0.1,0.3,0.3,0.4,0.5,0.3c0.5-0.2,0.8-1.4,0.9-2.3l0.2,0.1c0,1.3-0.4,2.3-1.2,2.6
				c-0.5,0.2-0.9,0-1-0.4c-0.2-0.5-0.1-1.2-0.3-1.7c-0.2-0.4-0.4-0.5-0.6-0.4c-0.9,0.3-1.2,2.5-1.4,3.7c-0.2,0.1-0.5,0.1-0.7,0
				C469.9,204.8,470,202.9,469.7,201.9z"/>
			<path id="XMLID_436_" d="M479.7,199.4c0,0.9-0.4,1.2-0.7,1.4c-0.4,0.2-0.9,0-1.3-0.4c0,1.3-0.4,2.3-1.2,2.6
				c-0.6,0.2-1-0.1-1.2-0.6c-0.5-1.2,0.1-3.9,1.4-4.4c0.3-0.1,0.4-0.1,0.6,0.1c0,0,0,0,0.1,0c0.3-0.1,0.5,0.2,0.5,0.3
				c0.1,0.3-0.1,1,0.1,1.6s0.7,0.8,1.1,0.6c0.3-0.1,0.5-0.5,0.5-1.2L479.7,199.4z M477.4,200.1c-0.1-0.2-0.2-0.4-0.3-0.6
				c-0.2-0.5-0.2-0.9-0.2-1.1c-1.2,0.5-1.4,2.8-1.1,3.6c0.1,0.3,0.4,0.5,0.6,0.4C476.9,202.2,477.3,201.2,477.4,200.1z"/>
			<path id="XMLID_439_" d="M480.1,198.9c0.1,0.4,0.2,0.9,0.3,1.2c0.2,0.6,0.5,0.8,0.8,0.7c0.6-0.2,0.8-1.4,0.9-2.4h0.2
				c-0.1,1.5-0.5,2.6-1.3,2.9c-0.6,0.2-1.1-0.2-1.3-0.8c-0.8-2.2-0.1-8.3,0.7-8.6c0.2-0.1,0.6,0.4,0.7,0.7
				C481.4,193.5,481.2,196.9,480.1,198.9z M480,198.5c0.8-1.8,1-4.8,0.7-5.5c-0.1-0.1-0.1-0.2-0.1-0.2
				C480.3,192.9,479.8,196.1,480,198.5z"/>
			<path id="XMLID_442_" d="M486.7,196.8c0,0.9-0.4,1.2-0.7,1.4c-0.4,0.2-0.9,0-1.3-0.4c0,1.3-0.4,2.3-1.2,2.6
				c-0.6,0.2-1-0.1-1.2-0.6c-0.5-1.2,0.1-3.9,1.4-4.3c0.3-0.1,0.4-0.1,0.6,0.1c0,0,0,0,0.1,0c0.3-0.1,0.5,0.2,0.5,0.3
				c0.1,0.3-0.1,1,0.1,1.6s0.7,0.8,1.1,0.6c0.3-0.1,0.5-0.5,0.5-1.2L486.7,196.8z M484.4,197.4c-0.1-0.2-0.2-0.4-0.3-0.6
				c-0.2-0.5-0.2-0.9-0.2-1.1c-1.2,0.5-1.4,2.8-1.1,3.6c0.1,0.3,0.4,0.5,0.6,0.4C484,199.6,484.4,198.5,484.4,197.4z"/>
			<path id="XMLID_445_" d="M488.5,194c-1.2,0.4-1.6,2.4-1.2,3.4c0.1,0.4,0.4,0.5,0.6,0.4c0.4-0.2,0.8-1.1,1.1-2.1l-0.1-0.6
				c0-0.2,0-0.6,0.3-0.8c0.1,0,0.1,0,0.2-0.1c0.1,0.4,0.3,1.9,0.3,3.4c0.6-0.6,1.1-1.6,1.1-2.6l0.2,0.1c0,1.1-0.7,2.3-1.3,2.9
				c0,1.8-0.3,3.2-1.1,3.6c-0.3,0.1-0.7,0-0.9-0.4c-0.3-0.9,0.6-2,1.4-2.8c0-0.6,0-1.3-0.1-2.1c-0.2,1-0.6,1.9-1.2,2.1
				c-0.5,0.2-1-0.1-1.2-0.8c-0.6-1.6,0.6-3.6,1.8-4c0.4-0.2,0.7-0.1,0.7,0.1c0.1,0.1,0,0.3,0,0.3C488.9,193.9,488.7,193.9,488.5,194
				z M489.1,198.7c-0.7,0.8-1.3,1.6-1.1,2.2c0.1,0.2,0.3,0.4,0.4,0.3C488.7,201.1,489.1,200.4,489.1,198.7z"/>
			<path id="XMLID_448_" d="M491.7,192.7c0.1,0.4-0.5,2.2-0.1,3.2c0.2,0.5,0.4,0.6,0.8,0.5c0.5-0.2,0.9-0.8,1-2.4l0.1,0.1
				c0.1,1.5-0.5,2.5-1.4,2.8c-0.6,0.2-1-0.1-1.2-0.6c-0.3-0.9-0.4-3.5,0.4-3.8C491.5,192.5,491.6,192.6,491.7,192.7z M491,191.1
				c-0.1-0.3,0.2-0.8,0.6-0.9c0.2-0.1,0.4,0,0.5,0.2c0.1,0.3-0.1,0.7-0.5,0.9C491.3,191.4,491.1,191.4,491,191.1z"/>
			<path id="XMLID_451_" d="M496.7,192.5c0.1,0.3-0.2,1.3,0,1.8c0.1,0.2,0.3,0.5,0.6,0.4c0.4-0.1,0.9-1,1.1-2.4l0.2,0.1
				c0,1.4-0.6,2.6-1.4,2.9c-0.5,0.2-0.9-0.1-1.1-0.5c0-0.1-0.1-0.2-0.1-0.3c-0.3,1.1-0.6,1.7-1.2,1.9c-0.5,0.2-0.9,0-1.2-0.6
				c-0.5-1.3,0.3-4.1,1.7-4.6c0.6-0.2,1.1,0,1.3,0.5c0.1,0.4,0,0.6-0.4,0.7c0-0.1,0-0.3-0.1-0.4c-0.1-0.3-0.4-0.6-0.8-0.4
				c-1,0.4-1.5,3-1.1,4c0.1,0.3,0.3,0.4,0.5,0.3c0.7-0.3,1.1-2.3,1.4-3.3C496.2,192.4,496.6,192.3,496.7,192.5z"/>
		</g>
	</g>
</g>
</svg>
