<?xml version="1.0" encoding="utf-8"?>
<!-- Generator: Adobe Illustrator 19.0.0, SVG Export Plug-In . SVG Version: 6.00 Build 0)  -->
<svg version="1.1" id="Camada_1" xmlns="http://www.w3.org/2000/svg" xmlns:xlink="http://www.w3.org/1999/xlink" x="0px" y="0px"
	 viewBox="0 50 363.8 125" style="enable-background:new 0 0 363.8 359;" xml:space="preserve">
<style type="text/css">
	.st0{fill:#FFF;}
	<!-- .st0{fill:#006084;} -->
</style>
<g>
	<g>
		<path class="st0" d="M25.5,119.1c0-9.2,3.1-16.7,9.3-22.6c6.2-5.9,14.5-8.9,25-8.9c12,0,21.1,3.5,27.3,10.5
			c4.9,5.6,7.4,12.5,7.4,20.8c0,9.2-3.1,16.8-9.2,22.7c-6.1,5.9-14.6,8.8-25.4,8.8c-9.7,0-17.5-2.5-23.4-7.4
			C29.2,136.9,25.5,129,25.5,119.1z M48.6,119.1c0,5.4,1.1,9.3,3.3,11.9c2.2,2.6,4.9,3.8,8.2,3.8c3.3,0,6-1.3,8.2-3.8
			c2.1-2.5,3.2-6.6,3.2-12.2c0-5.2-1.1-9.1-3.2-11.6c-2.1-2.5-4.8-3.8-8-3.8c-3.4,0-6.1,1.3-8.3,3.9
			C49.7,109.9,48.6,113.8,48.6,119.1z"/>
		<path class="st0" d="M148.3,125.4l21.9,2.5c-1.2,4.6-3.2,8.5-5.9,11.8c-2.8,3.3-6.3,5.9-10.5,7.8c-4.3,1.8-9.7,2.8-16.3,2.8
			c-6.4,0-11.7-0.6-15.9-1.8s-7.9-3.1-10.9-5.8c-3.1-2.7-5.4-5.8-7.2-9.3c-1.7-3.6-2.6-8.3-2.6-14.2c0-6.2,1.1-11.3,3.2-15.4
			c1.5-3,3.7-5.7,6.3-8.1s5.4-4.2,8.3-5.3c4.5-1.8,10.2-2.8,17.2-2.8c9.8,0,17.3,1.8,22.4,5.3c5.1,3.5,8.8,8.6,10.8,15.4l-21.7,2.9
			c-0.7-2.6-1.9-4.5-3.7-5.8c-1.8-1.3-4.2-2-7.2-2c-3.8,0-6.9,1.4-9.2,4.1c-2.4,2.7-3.5,6.9-3.5,12.4c0,4.9,1.2,8.7,3.5,11.2
			c2.3,2.6,5.3,3.8,8.9,3.8c3,0,5.5-0.8,7.6-2.3C145.7,131,147.3,128.7,148.3,125.4z"/>
		<path class="st0" d="M206.4,66.1v22.8h12.7v16.8h-12.7V127c0,2.6,0.2,4.3,0.7,5.1c0.8,1.3,2.1,1.9,4,1.9c1.7,0,4.1-0.5,7.1-1.5
			l1.7,15.9c-5.7,1.2-11,1.9-15.9,1.9c-5.7,0-10-0.7-12.7-2.2c-2.7-1.5-4.7-3.7-6-6.7c-1.3-3-2-7.8-2-14.5v-21.1h-8.5V88.9h8.5v-11
			L206.4,66.1z"/>
		<path class="st0" d="M228.8,66.1h23v15.7h-23V66.1z M228.8,88.9h23v60h-23V88.9z"/>
		<path class="st0" d="M261.6,119.1c0-9.2,3.1-16.7,9.3-22.6c6.2-5.9,14.5-8.9,25-8.9c12,0,21.1,3.5,27.3,10.5
			c4.9,5.6,7.4,12.5,7.4,20.8c0,9.2-3.1,16.8-9.2,22.7c-6.1,5.9-14.6,8.8-25.4,8.8c-9.7,0-17.5-2.5-23.4-7.4
			C265.3,136.9,261.6,129,261.6,119.1z M284.7,119.1c0,5.4,1.1,9.3,3.3,11.9c2.2,2.6,4.9,3.8,8.2,3.8c3.3,0,6-1.3,8.2-3.8
			c2.1-2.5,3.2-6.6,3.2-12.2c0-5.2-1.1-9.1-3.2-11.6c-2.1-2.5-4.8-3.8-8-3.8c-3.4,0-6.1,1.3-8.3,3.9
			C285.8,109.9,284.7,113.8,284.7,119.1z"/>
	</g>
</g>
</svg>
