<?xml version="1.0" encoding="utf-8"?>
<!-- Generator: Adobe Illustrator 19.0.0, SVG Export Plug-In . SVG Version: 6.00 Build 0)  -->
<svg version="1.1" id="Camada_1" xmlns="http://www.w3.org/2000/svg" xmlns:xlink="http://www.w3.org/1999/xlink" x="0px" y="0px"
	 viewBox="0 150 363.8 50" style="enable-background:new 0 0 363.8 359;" xml:space="preserve">
<style type="text/css">
	.st0{fill:#FFF;}
	<!-- .st0{fill:#006084;} -->
</style>
<g>
	<g>
		<path class="st0" d="M84,183.9l0.5,3c-0.9,0.2-1.8,0.3-2.5,0.3c-1.2,0-2.2-0.2-2.8-0.6c-0.7-0.4-1.1-0.9-1.4-1.5s-0.4-1.9-0.4-4
			v-11.4h-2.5v-2.6h2.5v-4.9l3.3-2v6.9H84v2.6h-3.4v11.6c0,1,0.1,1.6,0.2,1.8c0.1,0.3,0.3,0.5,0.6,0.7s0.6,0.2,1.1,0.2
			C82.9,184,83.4,184,84,183.9z"/>
		<path class="st0" d="M104.6,180.5l3.5,0.4c-0.5,2-1.6,3.6-3,4.7s-3.4,1.7-5.7,1.7c-2.9,0-5.2-0.9-6.9-2.7
			c-1.7-1.8-2.5-4.3-2.5-7.5c0-3.3,0.9-5.9,2.6-7.7c1.7-1.8,3.9-2.8,6.7-2.8c2.6,0,4.8,0.9,6.5,2.7c1.7,1.8,2.5,4.3,2.5,7.6
			c0,0.2,0,0.5,0,0.9H93.4c0.1,2.2,0.7,3.8,1.8,5c1.1,1.2,2.5,1.7,4.1,1.7c1.2,0,2.3-0.3,3.1-1C103.4,183,104.1,182,104.6,180.5z
			 M93.6,175.1h11c-0.1-1.7-0.6-2.9-1.3-3.7c-1.1-1.3-2.4-1.9-4.1-1.9c-1.5,0-2.8,0.5-3.9,1.5C94.3,172,93.7,173.4,93.6,175.1z"/>
		<path class="st0" d="M128.9,179.7l3.3,0.4c-0.4,2.3-1.3,4-2.8,5.3c-1.5,1.3-3.3,1.9-5.5,1.9c-2.7,0-4.9-0.9-6.5-2.7
			c-1.6-1.8-2.5-4.3-2.5-7.6c0-2.1,0.4-4,1.1-5.6c0.7-1.6,1.8-2.8,3.2-3.6c1.4-0.8,3-1.2,4.7-1.2c2.1,0,3.9,0.5,5.3,1.6
			s2.2,2.6,2.6,4.6l-3.3,0.5c-0.3-1.3-0.9-2.3-1.6-3c-0.8-0.7-1.7-1-2.9-1c-1.7,0-3.1,0.6-4.1,1.8c-1.1,1.2-1.6,3.1-1.6,5.7
			c0,2.7,0.5,4.6,1.5,5.8c1,1.2,2.3,1.8,4,1.8c1.3,0,2.4-0.4,3.3-1.2C128.1,182.6,128.7,181.3,128.9,179.7z"/>
		<path class="st0" d="M138.9,186.9v-19.8h3v2.8c1.5-2.2,3.5-3.3,6.3-3.3c1.2,0,2.3,0.2,3.3,0.6s1.7,1,2.2,1.7
			c0.5,0.7,0.8,1.5,1,2.5c0.1,0.6,0.2,1.7,0.2,3.3v12.1h-3.3v-12c0-1.4-0.1-2.4-0.4-3.1s-0.7-1.2-1.4-1.6c-0.7-0.4-1.4-0.6-2.3-0.6
			c-1.4,0-2.7,0.5-3.7,1.4c-1,0.9-1.6,2.6-1.6,5.2v10.8H138.9z"/>
		<path class="st0" d="M162.6,177c0-3.7,1-6.4,3.1-8.1c1.7-1.5,3.8-2.2,6.2-2.2c2.7,0,4.9,0.9,6.7,2.7c1.7,1.8,2.6,4.2,2.6,7.4
			c0,2.5-0.4,4.5-1.1,6s-1.9,2.6-3.3,3.4c-1.5,0.8-3,1.2-4.8,1.2c-2.8,0-5-0.9-6.7-2.7C163.5,182.9,162.6,180.4,162.6,177z
			 M166.1,177c0,2.5,0.6,4.4,1.7,5.7c1.1,1.3,2.5,1.9,4.2,1.9c1.7,0,3-0.6,4.1-1.9c1.1-1.3,1.7-3.2,1.7-5.8c0-2.4-0.6-4.3-1.7-5.6
			c-1.1-1.3-2.5-1.9-4.1-1.9c-1.7,0-3.1,0.6-4.2,1.9C166.6,172.6,166.1,174.5,166.1,177z"/>
		<path class="st0" d="M188.8,186.9v-27.3h3.3v27.3H188.8z"/>
		<path class="st0" d="M199.9,177c0-3.7,1-6.4,3.1-8.1c1.7-1.5,3.8-2.2,6.2-2.2c2.7,0,4.9,0.9,6.7,2.7c1.7,1.8,2.6,4.2,2.6,7.4
			c0,2.5-0.4,4.5-1.1,6s-1.9,2.6-3.3,3.4c-1.5,0.8-3,1.2-4.8,1.2c-2.8,0-5-0.9-6.7-2.7C200.8,182.9,199.9,180.4,199.9,177z
			 M203.4,177c0,2.5,0.6,4.4,1.7,5.7c1.1,1.3,2.5,1.9,4.2,1.9c1.7,0,3-0.6,4.1-1.9c1.1-1.3,1.7-3.2,1.7-5.8c0-2.4-0.6-4.3-1.7-5.6
			c-1.1-1.3-2.5-1.9-4.1-1.9c-1.7,0-3.1,0.6-4.2,1.9C203.9,172.6,203.4,174.5,203.4,177z"/>
		<path class="st0" d="M225.6,188.5l3.3,0.5c0.1,1,0.5,1.7,1.1,2.2c0.8,0.6,2,0.9,3.4,0.9c1.6,0,2.7-0.3,3.6-0.9
			c0.8-0.6,1.4-1.5,1.7-2.6c0.2-0.7,0.3-2.1,0.2-4.3c-1.5,1.7-3.3,2.6-5.5,2.6c-2.7,0-4.8-1-6.3-2.9c-1.5-2-2.2-4.3-2.2-7
			c0-1.9,0.3-3.6,1-5.2c0.7-1.6,1.7-2.8,3-3.7c1.3-0.9,2.8-1.3,4.6-1.3c2.3,0,4.3,0.9,5.8,2.8v-2.4h3.1v17.1c0,3.1-0.3,5.3-0.9,6.5
			c-0.6,1.3-1.6,2.3-3,3c-1.4,0.7-3,1.1-5,1.1c-2.4,0-4.3-0.5-5.7-1.6C226.2,192.3,225.5,190.7,225.6,188.5z M228.3,176.7
			c0,2.6,0.5,4.5,1.5,5.7s2.3,1.8,3.9,1.8c1.5,0,2.8-0.6,3.9-1.8c1-1.2,1.6-3,1.6-5.6c0-2.4-0.5-4.2-1.6-5.5
			c-1.1-1.2-2.4-1.8-3.9-1.8c-1.5,0-2.8,0.6-3.8,1.8C228.8,172.5,228.3,174.3,228.3,176.7z"/>
		<path class="st0" d="M251.2,163.5v-3.9h3.3v3.9H251.2z M251.2,186.9v-19.8h3.3v19.8H251.2z"/>
		<path class="st0" d="M276.3,184.5c-1.2,1.1-2.4,1.8-3.6,2.2c-1.1,0.4-2.4,0.7-3.7,0.7c-2.2,0-3.8-0.5-5-1.6
			c-1.2-1.1-1.7-2.4-1.7-4.1c0-1,0.2-1.9,0.7-2.7c0.4-0.8,1-1.4,1.7-1.9c0.7-0.5,1.5-0.8,2.4-1.1c0.7-0.2,1.6-0.3,3-0.5
			c2.7-0.3,4.7-0.7,6-1.2c0-0.5,0-0.8,0-0.9c0-1.4-0.3-2.3-0.9-2.9c-0.9-0.8-2.1-1.1-3.8-1.1c-1.6,0-2.7,0.3-3.5,0.8
			c-0.8,0.6-1.3,1.5-1.7,2.9l-3.3-0.4c0.3-1.4,0.8-2.5,1.5-3.4c0.7-0.9,1.7-1.5,3-2c1.3-0.5,2.8-0.7,4.5-0.7c1.7,0,3.1,0.2,4.1,0.6
			c1.1,0.4,1.8,0.9,2.3,1.5s0.8,1.4,1,2.3c0.1,0.6,0.2,1.6,0.2,3.1v4.5c0,3.1,0.1,5.1,0.2,5.9c0.1,0.8,0.4,1.6,0.8,2.4H277
			C276.7,186.2,276.4,185.4,276.3,184.5z M276.1,177c-1.2,0.5-3,0.9-5.5,1.3c-1.4,0.2-2.3,0.4-2.9,0.7c-0.6,0.2-1,0.6-1.3,1.1
			c-0.3,0.5-0.5,1-0.5,1.6c0,0.9,0.3,1.6,1,2.2s1.7,0.9,3,0.9c1.3,0,2.4-0.3,3.4-0.8c1-0.6,1.7-1.3,2.2-2.3c0.4-0.8,0.5-1.9,0.5-3.3
			V177z"/>
	</g>
</g>
</svg>