<svg width="124.99999999999999" height="200" xmlns="http://www.w3.org/2000/svg">
 <defs>
 <!--  <style>.cls-1{fill:#154468;}</style> -->
  <style>.cls-1{fill:#FFF;}</style>
 </defs>
 <title>logo_navbar</title>
 <g>
  <title>background</title>
  <rect fill="none" id="canvas_background" height="202" width="127" y="-1" x="-1"/>
 </g>
 <g>
  <title>Layer 1</title>
  <path id="svg_1" d="m54.94,174.36a28.4,28.4 0 0 1 40.84,-38.57a28.41,28.41 0 1 0 -40.84,38.57z" class="cls-1"/>
  <path id="svg_2" d="m77.63,25.36a23.37,23.37 0 0 1 -34.77,30.45a23.38,23.38 0 1 0 34.78,-30.45l-0.01,0z" class="cls-1"/>
  <path id="svg_3" d="m89.7,86.8a54.9,54.9 0 0 0 11.7,-86.8a55.19,55.19 0 0 1 -64.72,82.37a55.44,55.44 0 0 1 -16.62,-8.82a55.18,55.18 0 0 0 21.39,16a68,68 0 0 0 -20.51,110a68,68 0 0 1 104.86,-85.64a68.29,68.29 0 0 0 -36.1,-27.11z" class="cls-1"/>
 </g>
</svg>