<?xml version="1.0" encoding="utf-8"?>
<!-- Generator: Adobe Illustrator 19.0.0, SVG Export Plug-In . SVG Version: 6.00 Build 0)  -->
<svg version="1.1" id="Camada_1" xmlns="http://www.w3.org/2000/svg" xmlns:xlink="http://www.w3.org/1999/xlink" x="0px" y="0px"
	 viewBox="0 -270 612 251" style="enable-background:new 0 -270 612 251;" xml:space="preserve">
<style type="text/css">
	.st0{
		fill-opacity: 0.8;
		fill: #0f0f0f;
	}
</style>
<defs>
    <filter id="f1" x="0" y="0">
      <feGaussianBlur in="SourceGraphic" stdDeviation="3" />
    </filter>
</defs>
<g id="XMLID_417_" filter="url(#f1)">
	<path id="XMLID_405_" class="st0" d="M417.6-43.4H181.5c-8.4,0-15.2-6.8-15.2-15.2v-186.7c0-8.4,6.8-15.2,15.2-15.2h236.2
		c8.4,0,15.2,6.8,15.2,15.2v186.7C432.8-50.2,426-43.4,417.6-43.4z"/>
	<circle id="XMLID_406_" class="st0" cx="507.8" cy="-170.4" r="51.7"/>
	<path id="XMLID_407_" class="st0" d="M120-85.6l-32.1-16.1c-2.3-1.2-3.3-4-2.1-6.3l35.2-70.2c1.2-2.3,4-3.3,6.3-2.1l32.1,16.1
		c2.3,1.2,3.3,4,2.1,6.3l-35.2,70.2C125.1-85.4,122.3-84.5,120-85.6z"/>
	<polygon id="XMLID_408_" class="st0" points="442.3,-91.9 490.6,-109.2 511.3,-61.1 461.1,-42.2 	"/>
	<g id="XMLID_414_">
		<polygon id="XMLID_413_" class="st0" points="507.7,-97.3 510.6,-92.7 512.4,-95 		"/>
		<path id="XMLID_412_" class="st0" d="M512.4-95l-1.8,2.3l6.3,8.5c0,0,1.6-4.4,4.9-5.6L512.4-95z"/>
		<path id="XMLID_411_" class="st0" d="M517-84.2L574.1-35l5-5.3l-57.3-49.4C521.8-89.8,517.7-88.7,517-84.2z"/>
		<path id="XMLID_410_" class="st0" d="M583.7-34.1l-2.8,3c-0.3,0.3-0.8,0.4-1.2,0l-3.3-3.1c-0.3-0.3-0.4-0.8,0-1.2l2.8-3
			c0.3-0.3,0.8-0.4,1.2,0l3.3,3.1C584-35,584-34.5,583.7-34.1z"/>
		<path id="XMLID_409_" class="st0" d="M574.1-35l1.6,1.5c0,0,1.1,0.8,2-0.1l3.2-3.5c0,0,0.9-1-0.2-1.8c-1.1-0.9-1.6-1.3-1.6-1.3
			L574.1-35z"/>
	</g>
</g>
</svg>
